<?xml version="1.0" encoding="UTF-8"?>
<!DOCTYPE svg PUBLIC "-//W3C//DTD SVG 1.1//EN" "http://www.w3.org/Graphics/SVG/1.1/DTD/svg11.dtd">
<!-- Creator: CorelDRAW 2018 (64 Bit Versión de evaluación) -->
<svg xmlns="http://www.w3.org/2000/svg" xml:space="preserve" width="91.44mm" height="83.82mm" version="1.1" style="shape-rendering:geometricPrecision; text-rendering:geometricPrecision; image-rendering:optimizeQuality; fill-rule:evenodd; clip-rule:evenodd"
viewBox="0 0 9144 8382"
 xmlns:xlink="http://www.w3.org/1999/xlink">
 <defs>
  <style type="text/css">
   <![CDATA[
    .fil0 {fill:#96413D}
    .fil19 {fill:#97423E}
    .fil2 {fill:#F06F21}
    .fil12 {fill:#F66E1E}
    .fil8 {fill:#F67D28}
    .fil1 {fill:#F7812A}
    .fil10 {fill:#F8882E}
    .fil13 {fill:#F88E32}
    .fil17 {fill:#F89033}
    .fil18 {fill:#F89134}
    .fil3 {fill:#F89838}
    .fil5 {fill:#F89F3C}
    .fil14 {fill:#F8A641}
    .fil4 {fill:#F8B047}
    .fil9 {fill:#F8CC59}
    .fil16 {fill:#F9A943}
    .fil15 {fill:#F9B349}
    .fil11 {fill:#F9BB4E}
    .fil6 {fill:#F9C253}
    .fil7 {fill:white}
   ]]>
  </style>
 </defs>
 <g id="Capa_x0020_1">
  <metadata id="CorelCorpID_0Corel-Layer"/>
  <g id="_1984778664656">
   <g>
    <polygon class="fil0" points="5333.74,6140.9 5319.11,6142.01 5330.36,6157.77 "/>
    <polygon class="fil0" points="1665.72,5130.95 1652.27,5130.95 1663.48,5146.65 "/>
   </g>
   <g>
    <path class="fil1" d="M3633.02 4119.78c133.27,-22.56 226.96,-20.24 364.95,-17.7l8.09 45.18c22.73,-14.49 12.56,23.41 20.95,-28.43l5.18 -26.63 -7.26 -47.08c-100.7,-2.66 -220.44,-15.46 -313.87,13.12l-36.66 19.68c-26.92,21.74 -20.7,17.47 -41.38,41.86z"/>
    <path class="fil1" d="M2986.81 4093.03c-27.1,19.12 13.51,29.86 17.11,32.28 26.08,-60.83 305.03,-20.88 363.94,-14.59 -2.42,-3.12 -5.88,-11.96 -7.21,-9.42l-68.63 -61.77 -305.83 -3.96 0.62 57.46z"/>
   </g>
   <g>
    <path class="fil2" d="M3711.06 4058.24c93.43,-28.58 213.17,-15.78 313.87,-13.12l7.26 47.08c12.35,-12.5 10.31,-3.74 21.35,-25.73l21.21 -91.04c-322.79,-3.63 -310.91,-35.11 -363.69,82.81z"/>
    <path class="fil2" d="M2986.81 4093.03l-0.62 -57.46 305.83 3.96 -33.42 -63.64 -312.4 -3.57c-0.24,54.08 3.15,90.89 40.61,120.71z"/>
   </g>
   <g>
    <path class="fil3" d="M5753.52 4002.59c16.58,-61.97 4.88,-86.32 10.42,-150.56l229.32 -0.29 13.47 92.8c0,-73.12 -6.12,-110.51 14.17,-181.52 -90.33,0 -190.64,-11.08 -275.16,12.77 -5.85,-7.93 -34.65,162.54 7.78,226.8z"/>
    <path class="fil3" d="M6535.85 3958.01l23.47 -6.61c-1.1,-63.02 -9.66,-52.88 -4.68,-112.51l257.31 0.33c-3.15,31.58 -0.78,36.83 -5.08,78.18 -5.16,49.75 -8.77,42.96 2.95,92.24 47.8,-34.64 18.55,-176.53 9.3,-226.88 -50.91,-20.89 -258.68,-50.07 -283.73,5.65l0.46 169.6z"/>
   </g>
   <g>
    <path class="fil4" d="M3103.4 4265.01c8.74,19.54 0.81,14.22 24.27,36.82 19.5,18.78 25.78,20.54 56.43,32.48 2.35,-31.7 -6.98,-16.12 18.48,-25.75l620.14 0 6.04 27.77c30.24,-11.1 18.42,1.08 51.16,-25.36 0.6,-0.48 18.4,-19.03 19.2,-20.15 13.42,-18.63 4.25,-6.37 10.59,-23.08l-6.1 -29.83 -796.87 0.03 -3.34 27.07z"/>
    <path class="fil4" d="M5768.62 4053.37c-2.47,21.27 -14.22,-0.75 -1.1,35.57 23.69,65.54 -3.15,5.6 28.07,33.68l1.2 -41.79c98.83,-3.67 208.39,0.07 303.88,5.86l-50.36 -68.37c-83.9,-24.01 -182.62,-14.01 -271.8,-13.87l-9.89 48.92z"/>
   </g>
   <g>
    <path class="fil5" d="M3103.4 4265.01l3.34 -27.07 796.87 -0.03 6.1 29.83c28.77,-14.96 18.2,-2.44 43.74,-31.17 1.64,-1.84 14.19,-19.29 16.05,-22.86 13.92,-26.69 1.34,1.51 8.39,-26.32l-6.88 -27.09c-158.95,0 -328.39,6.26 -485.32,2.46 -56.61,-1.37 -433.85,-23.71 -453.4,14.5 5.16,26.31 0.62,18.71 24.09,48.25 28.41,35.74 9.65,18.91 47.02,39.5z"/>
    <path class="fil5" d="M6559.32 3951.4l5.59 -47.34 236.15 0.06c8.01,79.95 -8.52,94.55 -4.5,147.23 27.53,0 14.95,-25.59 13.26,-41.71 -11.72,-49.28 -8.11,-42.49 -2.95,-92.24 4.3,-41.35 1.93,-46.6 5.08,-78.18l-257.31 -0.33c-4.98,59.63 3.58,49.49 4.68,112.51z"/>
   </g>
   <g>
    <path class="fil6" d="M5850.67 4215.48c7.71,27.69 -7.64,-0.62 9.19,25.15 3.18,4.88 20.38,24.02 24.42,28.33 31.1,33.01 20.76,24.84 60.83,42.48 -11.76,-60.46 -2.14,-17.85 7.62,-35l673.96 0.02c-35.54,35.76 -9.93,11.54 -20.52,46 38.31,-16.3 46.24,-23.1 68.64,-47.21 7.34,-7.91 16.51,-17.75 24.24,-29.41 24.01,-36.19 6.73,-8.55 14.98,-32.34l-6.34 -31.37 -850.78 0.2 -6.24 33.15z"/>
    <path class="fil6" d="M3184.1 4334.31l56.7 42.67c179.56,93.74 433.4,85.04 566.92,-15.64l21.04 -25.01 -6.04 -27.77 -620.14 0c-25.46,9.63 -16.13,-5.95 -18.48,25.75z"/>
   </g>
   <g>
    <path class="fil7" d="M5022.55 1691.13c0,144.7 158.68,95.1 240.52,190.86 -72.35,89.93 -388.83,19.67 -388.83,161.76 0,130.34 179.15,64.38 334.08,38.31 76.42,94.72 92.7,328.42 117.15,467.14 26.9,152.41 72.71,348.48 73.66,505.64 -32.21,21.16 -64.64,23.15 -104.82,43.04 -171.69,85.03 -190.86,363.34 -295.55,485.47 -62.66,73.08 -149.95,51.19 -272.81,51.19 -15.95,-93.64 -86.87,-188.75 -188.73,-188.75l-1995.22 0c-213.22,0 -310.69,420.06 53.93,420.06l2372.69 -0.02c232.37,-0.05 371.06,-221.37 442.79,-242.69 1.05,144.03 15.97,261.72 66.72,361.9 161.42,-54.69 131.9,26.23 137.41,-175.77 2.67,-97.46 34.34,-172.26 68.69,-240.65 212.96,-424.06 834.11,-529.1 1155.11,-13.35 59.63,-5.89 96,-19.07 139.74,-39.82 -18.33,-304.23 -287.25,-576.56 -529.16,-647.46 -184.61,-54.12 -359.11,10.41 -514.08,-79.2 -88.37,-51.1 -238.16,-217.94 -264.56,-325.46l134.53 15.09c-2.62,-98.22 -77.65,-490.46 -106.36,-555.98 -96.08,17.65 -139.2,68.34 -189.19,132.39 -38.44,-278.8 -16.47,-226.61 -420.31,-402.03 -32.52,13.81 -42.44,19.86 -67.4,38.33z"/>
    <path class="fil7" d="M2568.97 3270.55c0,33.83 6.61,40.44 40.44,40.44l1806.48 0c134.25,0 -56.03,-484.8 -209.67,-639.66 -221.04,-222.79 -282.1,-214.16 -507.2,-287.98 -21.69,-7.12 -35.22,-8.77 -45.51,-35 -57.02,-145.28 -170.26,-136.81 -238.66,-78.91 -44.41,37.59 -21.72,39.09 -40.43,81.28 -29.74,67.05 -456.22,51.61 -699.16,526.87 -46.52,91.01 -106.29,269.4 -106.29,392.96z"/>
    <path class="fil7" d="M5780.58 6489.44c20.04,-27.56 36.27,-41.55 63.54,-62.49l-1.14 77.16c-34.75,-0.05 -41.74,-3.07 -62.4,-14.67zm-232.28 16.58c-38.65,-28.63 -41.88,-46.14 -29.57,-96 11.05,-44.73 18.15,-63.05 56.54,-78.32 44.06,56.41 22.74,139.45 -26.97,174.32zm-1644.69 0c-37.43,-30.49 -41.78,-45.52 -29.49,-95.9 10.94,-44.86 18.11,-63.31 56.45,-78.26 43.74,56.43 21.94,139.65 -26.96,174.16zm1430.13 -365.12l-3.38 16.87 -11.25 -15.76 14.63 -1.11zm-147.03 106.58c5.71,-69.39 28.79,-137.7 62.67,-184 3.38,76.72 -32.24,141.6 -62.67,184zm-1687.42 -146.01c55.37,-29.9 140.37,-6.18 176.96,25.38 109.69,94.58 10.3,405.63 -187.52,389.6 -2.29,-75.16 13.98,-177.59 28.31,-249.49 16.97,-85.24 98.15,-159.63 -17.75,-165.49zm0 0c-57.8,46.46 -80.33,108.2 -94.17,189.5 -15.1,88.67 -18.58,168.33 -13.81,270.84 68.36,31.91 173.45,44.84 249.15,4.14 97.65,-52.5 78.83,-81.33 139.72,-138.72 17.19,292.17 327.64,106.21 247.74,-66.52 27.39,6.42 30.3,11.1 50.94,23.98 -0.67,106.71 -27.98,111.68 10.71,189.21l59.5 0.95c20.13,-31.24 39.3,-75.23 62.47,-107.16 5.48,91.42 -17.66,109.81 84.5,105.73 18.31,-34.28 30.49,-62.1 45.64,-105.9l32.16 105.9c91.24,4.25 87.32,-14.06 164.93,-1.23 64.39,10.66 98.69,-12.51 146.74,-25.73 51.57,18.36 38.98,35.86 121.74,29.19 48.73,-3.92 64.46,-22.63 93.96,-40.08 61.71,71.89 117.94,42.18 202.22,0.08 44.87,48.74 84.87,60.94 151.2,13.73 87.52,51.33 114.89,20.57 199.31,-2.92 168.37,96.56 221.05,-35.43 233.31,-188.86l49.79 54.05c-30.93,46.2 -42.43,26.98 -54.79,80.88 21.91,21.37 27.12,18.35 46.07,35.56 17.78,16.16 24.19,30.12 35.68,45.33 155.66,5.65 201.82,-11.18 296.59,-78.67 -2.16,-125.36 -40.31,-49.99 -119.1,-31.4 -3.21,-38.95 -18.77,-75.64 -13.68,-102.91 8.92,-47.64 27.34,-13.62 26.55,-97.08 -112.61,-6.63 -116.99,36.76 -165.79,105.45 -53.26,-46.35 -136.22,-154.08 -273.81,-98.34 -36.54,14.81 -72.56,60.85 -83.62,104.44 -20,78.79 25.78,105.76 -56.59,129.61 -4.86,-117.75 28.04,-137 27.4,-243.25l-72.45 0.73c-62.08,89.49 -20.01,215.85 -142.9,228.26 -4.81,-83.66 22.75,-114.41 55.74,-168.43 31.02,-50.78 47.23,-99.01 73.09,-149.39l29.18 50.47c91.45,2.01 133.8,-6.09 98.6,-96.81 -55,-20.3 -65.46,-13.74 -109.47,14.8 2.88,-92.16 36.41,-100.41 -11.99,-187.61 -119.52,-6.21 -153.78,68.79 -197.89,195.5 -43.56,125.2 -40.79,175.95 -49.34,328.38l-63.53 26.91c-4.75,-100.28 36.82,-147.77 38.51,-242.03l-82.73 1.31c-54.11,94.15 -33.31,241.19 -185.41,241.16 -30.38,-59.91 -31.2,-134.23 25.48,-173.76 1.18,52.99 -3.69,31.62 13.49,67.41 85.9,-5.66 89.99,-72.94 40.44,-136.05l-107.86 0.52c-150.26,98.23 -43.75,211.41 -146.79,241.88 -25.84,-59.99 26.86,-152 27.31,-242.53l-82.74 1.37c-41.71,84.56 -20.04,203.11 -106.15,227.5 -4.06,-86.79 16.19,-166.17 -1.69,-227.5 -89.5,-4.67 -77.35,8.32 -114.45,65.66l-17.68 -67.67c-69.53,1.34 -58.66,-11.97 -120.8,79.79l-3.2 -79.71 -69.79 0.24 -24.59 52.82c-161.64,-110.51 -223.25,-29.73 -280.65,-13.14 72.51,-316.42 -300.75,-334.49 -422.05,-268.55 -63.75,34.64 -83.89,76.08 -79.21,176.63 119.29,-7.9 36.68,-100.86 188.86,-107.96z"/>
    <path class="fil7" d="M3836.19 4765.24l-175.24 -0.37c23.58,41.35 196.1,497.65 188.73,541.33 -21.43,140.94 -24.19,131.42 40.44,134.81 0,-71.04 -21,-124.37 40.43,-132.89 62.05,-8.61 112.77,7.81 164.09,13.84 0.85,-73.88 52.17,-192.3 81.65,-241.88 15.7,29.07 30.84,75.84 46.27,109.69 19.79,43.44 31.05,73.21 31.56,131.66 130.32,-20.95 109.77,-17.96 244.38,1.01 -0.38,-75.63 152.03,-493.59 187.01,-557.69 -95.77,-0.07 -163.19,3.45 -244.43,-11.28 -1.37,72.8 -46.22,197.46 -77.3,240.85 -34,-62.24 -80.83,-150.79 -82.71,-240.85 -297.27,53.87 -172.84,-71.55 -227.95,95.36 -13.08,39.65 -48.03,115.47 -68.64,144.5 -21.41,-30.24 -33.29,-69.48 -47.91,-111.07l-30.14 -118.14c-1.94,-0.55 -15,-3.42 -22.56,-3.1 -12.85,0.56 -29.24,4.22 -47.68,4.22z"/>
    <path class="fil7" d="M2124.09 5441.01c0,51.55 -4.14,4.91 13.49,40.45 147.17,-15.14 -63.95,-182.27 94.36,-175.26l51.35 2 2.66 149.04c61.33,31.27 14.21,31 80.8,37.69l0 -431.39c27.42,21.04 188.73,193.85 188.73,269.61l-13.48 215.71c101.38,1.1 66.4,-17.56 49.29,-157.49 -11.27,-92.35 51.64,-73.69 191.87,-70.51 -12.53,142.97 -23.71,129.48 41.94,133.62 0,-110.79 -13.47,-79.16 -13.47,-134.8 0,-155.64 -25.33,-433.44 26.96,-567.77 -75.52,7.66 -27.67,25.77 -121.01,27.04 -85.63,1.16 -74.3,-12.6 -138.15,-27.13 41.89,134.27 35.48,40.68 12.74,269.46 -29.71,-22.45 -68.13,-75.38 -100.36,-110.17 -47.8,-51.58 -71.02,-63.38 -71.13,-159.39 -95.76,11.12 21.31,26.45 -188.74,26.45 -64.51,0 -53.87,-13.14 -107.85,-26.53 35.49,186.3 24.04,130.87 23.98,338.85 -0.02,62.98 0.84,126.38 0.38,189.28 -0.47,64.34 -24.36,121.99 -24.36,161.24z"/>
    <path class="fil7" d="M6653.76 4834.36l0 593.17c0,104.08 -70.36,163.11 13.49,215.7l39.93 -14.79c7.98,-122.56 -42.8,-225.53 15.45,-307.29l387.59 0.03c35.34,145.2 -49.05,194.53 44.95,214.19 46.81,-96.38 -59.41,-179.3 37.83,-240.02 98.42,66.78 -40.03,159.26 70.01,186.11 31.64,-65.16 -12.47,-106.65 -2.59,-202.22l16.03 -120.95c-73.58,24.41 -303.55,13.09 -393.51,13.09l-8.78 -52.51 332.33 12.07c-17.79,-76.35 -16.44,-46.56 -9.46,-132.05l-0.89 -32.85 -313.2 3.12 -7.63 -51.41 385.11 12.74c-24.33,-67.28 -12.39,-102.37 0,-163.55 -141.68,24.89 -477.61,18.28 -619.87,-1.56 7.88,22.37 13.21,37.01 13.21,68.98z"/>
    <path class="fil7" d="M1057.48 4940.61c-54.39,2.28 -96.75,-3.55 -132.13,-25.36 1.88,-18.43 16.63,-25.07 39.36,-25.07 58.55,0.04 76.78,6.04 92.77,50.43zm-402.83 -11.89c0,101.04 82.08,142.09 163.62,159.62 95.76,20.59 216.33,10.59 265.75,56.08 -43.21,53.18 -103.08,29.46 -145.71,-13.68 -1.78,-1.79 -5.51,-5.62 -6.96,-7.1 -1.44,-1.49 -4.66,-4.84 -7.08,-7.16 -97.35,20.65 -197.38,15.87 -284.92,14.46 61.99,127.84 97.57,188.74 284.92,188.74l-1.83 121.32c41.48,-14.73 27.67,29.5 31.11,-53.44 2.74,-66.08 -22.42,-45.3 24.63,-67.88 -1.03,152.92 -18.44,114.97 40.45,121.33 0,-174.38 -47.76,-93.7 136.9,-132.33 237.31,-49.65 218.36,-239.35 136.54,-302.83 -71.85,-55.7 -140.87,-33.3 -203.43,-66.24 54.33,-37.1 169.93,-19.25 253.54,-24.36 -81.54,-128.63 -139.02,-175.26 -377.47,-175.26 -130.29,0 -310.06,61.54 -310.06,188.73z"/>
    <path class="fil7" d="M3164.21 4917.32c117.89,1.72 246.45,1.51 236.13,129.31 -10.86,134.76 -96.54,124.75 -238.46,124.75l2.33 -254.06zm-231.25 485.38l40.67 20.67c-2.24,14.6 -3.88,34.33 -1.31,43.96 6.74,25.26 4.92,14.02 14.56,27.6 74.55,-16.37 26.97,11.14 26.97,-188.73l132.21 11.67 3.23 109.64c69.17,-15.36 30.27,-6.14 28.41,-55.27 -6.34,-167.31 458.98,137.86 446.31,-363.05 -8.41,-331.86 -430.39,-191.01 -693.34,-243.76l2.29 637.27z"/>
    <path class="fil7" d="M5062.99 5009.61c0,309.42 188.38,272.21 239.89,325.53 13.92,14.41 24.11,-24.72 7.05,82.82 -5.87,37.05 -4.28,65.98 -4.28,103.94l53.92 0.83c1.14,-139.88 -16.47,-164.34 13.48,-189.58 -0.97,164.84 -20.7,120.48 28.57,148.31l11.88 -148.31 67.4 0c0,77.32 -10.94,197.88 10.73,242.67 80.34,-19.49 29.71,-66.85 29.71,-242.67 114.85,-45.49 238.57,-36.97 283.1,-229.17 -70.05,4.55 -50.22,12.58 -122.95,2.08 -40.25,-5.79 -118.35,-15.01 -146.66,-15.57 -6.34,148.16 -229.18,121.78 -229.18,-40.44 0,-178.69 222.09,-186.93 229.18,-51.89 90.18,-9 149.22,-15.51 256.13,-15.51 -39.2,-206.42 -168.35,-218.75 -377.46,-218.56 -177.92,0.18 -350.51,79.51 -350.51,245.52z"/>
    <path class="fil7" d="M5858.38 5521.9l53.91 0c3.74,-132.32 -10.89,-110.23 -11.53,-150.5 -1.69,-107.33 147.13,-78.16 157.94,16.45 9.76,85.5 -36.85,160.98 -0.5,241.9l32.09 0c16.96,-38.23 -2.74,-414.77 -2.74,-512.28l229.18 0 -10.05 215.86c91.87,-19.3 144.08,-19.59 239.24,-0.18 -14.3,-171.82 -31.82,-400.95 0,-567.89 -108.02,21.63 -141.16,8.5 -242.67,1.68 14.57,76.23 8.92,113.47 11.99,200.74l-214.2 1.69c4.31,-88.1 -2.15,-125.44 13.47,-202.43 -99.69,5.42 -135.74,21.77 -244.96,-1.86 9.05,75.98 22.57,487.27 10.97,577.98 -8.47,66.33 -22.14,91 -22.14,178.84z"/>
    <path class="fil7" d="M8365.9 5130.97l15.63 2.24 -15.62 11.16 -0.01 -13.4zm0 0l-118.47 10.55c27.47,-47.8 31.46,-103.33 64.52,-143.38 27.16,33.36 41.11,86.4 53.95,132.83zm-394.12 310.04c67.16,-12.88 45.41,-35.3 45.41,-119.5 84.64,-4.34 118.22,-1.89 186.9,11.64l0 -80.88 187.81 2.91c51.84,10.21 44.44,82.18 39.34,145.37 -5.84,72.6 -45.92,88.96 42.47,94.38 0,-85.08 -4.89,-95.38 0,-175.25 66.4,2.68 36.87,-10.62 64.42,26.96 54.57,-28.84 62.77,-43.01 139.93,-13.49 -5.64,-53.05 -87.15,-221.02 -111.25,-281.8 -23.92,-60.26 -104.12,-217.55 -104.45,-286.17 -126.94,12.29 -160.55,11.6 -286.65,0.28 0.13,141.4 -260.08,533.51 -203.93,675.55z"/>
    <path class="fil7" d="M1665.72 5130.95l-2.24 15.7 -11.21 -15.7 13.45 0zm0 0c7.39,-54.29 29.18,-78.8 40.45,-134.82 41.99,34.43 46.89,94.98 78.51,142.54l-118.96 -7.72zm-296.57 310.06c77.35,-6.44 53.91,-34.23 53.91,-121.33l163.78 5.54c1.61,-0.01 5.91,-1.11 7.12,-1.21 1.16,-0.09 4.36,-1.46 6.55,-2.15l3.51 -13.4c0.16,-1.16 0.69,-5.69 0.91,-7.18l9.06 -46.83c303.47,1.51 213.51,-27.8 213.51,240.48 57.48,-6.08 44.76,14.07 42.27,-66.65 -1.75,-56.96 -5.92,-65.89 11.66,-108.6 61.09,5.66 20.27,0.61 70.63,26.96 33.2,-43.07 82.55,-32.58 133.05,-13.49 -25.01,-124.1 -216.05,-455.97 -217.17,-566.21 -119.66,5.96 -161.39,11.48 -286.3,-1.76 -6.91,158.51 -225.04,448.94 -212.49,675.83z"/>
    <path class="fil7" d="M7368.26 4834.36c0,185.67 13.41,491.18 -14.81,660.25 -10.79,64.74 -25.17,53.91 14.81,95.82l26.96 0.42c49.95,-53.23 -0.83,-51.19 13.48,-271.17 175.46,0 312.42,-26.73 364,29.44 33.67,-11.95 15.49,2.46 26.95,-29.44 54.38,0 111.05,-0.79 150.47,13.47 -2.18,-57.17 -9.31,-126.9 11.31,-175.24l-374.97 12.16c32.69,-71.35 5.98,-302.29 14.16,-404.94 -139.9,29.69 -159.31,6.62 -245.85,1.81 8.11,20.81 13.49,35.54 13.49,67.42z"/>
    <path class="fil7" d="M4754.07 4847.46l-16.22 660.83 55.5 0.12c0,-141.02 -24.99,-128.62 28.46,-200.72l90.76 0.18c48.4,86.6 22.03,122.75 25.36,201.88 3.27,77.82 -1.27,40.1 30.69,53.49 11.65,-16.63 10.19,1.25 15.17,-28.6 8.31,-49.7 -12.95,-83.93 -12.96,-120.6 -0.05,-98.89 11.27,-207.47 11.27,-323.55 0,-99.15 -18.72,-244.68 13.47,-323.55 -190.59,27.61 -137.78,6.4 -256.13,0l14.63 80.52z"/>
    <path class="fil7" d="M3622.93 2045.45c-22.74,-92.67 -104.87,-155.75 -110.78,-284.31 -6.86,-149.12 58.34,-199.93 121.62,-283.62 133,-175.89 90.09,-454.02 -95.86,-541.05 26.17,112.65 105.17,146.52 81.11,324.36 -24.44,180.56 -299.34,273.59 -186.61,566.56 33.2,86.27 107.43,180.07 190.52,218.06z"/>
    <path class="fil7" d="M2903.87 1625.84c0.58,274.77 217.83,259.34 217.83,498.8 0,93.96 -50.62,110.04 -70.61,191.52 94.12,-23.68 178.45,-135.2 178.45,-258.92 0,-120.73 -109.26,-215.82 -166.28,-292.14 -137.33,-183.81 -44.81,-237.01 -20.16,-331.33 -86.2,12.07 -139.43,92.8 -139.23,192.07z"/>
    <path class="fil7" d="M4038.41 2192.05c0,110.14 -48.4,106.11 -69.74,190.44 97.54,-22.79 164.12,-113.78 164.12,-230.88 0,-147.06 -193.27,-247.61 -202.05,-364.12 -6.32,-83.86 33.92,-94.09 43.23,-161.65 -98.8,38.27 -169.81,163.62 -112.57,298.92 43.61,103.1 177.01,134.59 177.01,267.29z"/>
    <path class="fil7" d="M4550.69 6185.02l26.13 37.38 98.1 -6.16c34.67,-107.4 -17.42,-101.17 -85.49,-101.17 -22.81,31.72 -22.62,28.48 -38.74,69.95z"/>
    <path class="fil7" d="M4968.62 6168.98c0,25.89 4.25,25.72 10.84,43.44l96.74 13.26 30.53 -55.28c-58.29,-110.23 -138.11,-35.28 -138.11,-1.42z"/>
    <path class="fil7" d="M7799.65 5508.41c0,-101.04 2.76,-62.73 -30.12,-83.62 -42.18,110.61 13.2,81.79 30.12,83.62z"/>
    <path class="fil7" d="M3146.36 5575.61c73.26,-16.04 48.52,-62.21 13.2,-94.15l-13.2 94.15z"/>
    <path class="fil7" d="M8538.99 5467.97c57.93,-29.42 16.48,-75.25 2.13,-94.37 -19.6,40.68 -21.41,50.3 -2.13,94.37z"/>
    <path class="fil7" d="M1948.83 5457.29c21.34,-31.75 14.46,35.76 15.65,-30.7 1.16,-65.48 -8.12,-30.22 -15.65,-41.93 -3.09,4.29 -14.38,-13.39 -21.64,36.4 -6.07,41.5 -4,18.19 21.64,36.23z"/>
   </g>
   <path class="fil8" d="M5779.84 3674.9c37.12,0 30.19,-23.26 30.74,-21.92 0.87,2.08 4.76,-6.37 5.95,-8.17l28.36 -45.65 876.27 -0.21 41.48 56.05c3.38,2.47 9.06,4.55 13.76,6.43 -20.05,-60.74 -78.23,-144.1 -129.36,-182.46 -22.12,-16.59 -13.29,-9.23 -31.25,-14.06 -125.54,-17.93 -540.53,-17.22 -667.29,-0.67 -64.33,18.62 -138.64,124.81 -168.66,210.66z"/>
   <path class="fil9" d="M5945.11 4311.44c6.72,16.24 -13.25,0.1 18.12,27.09 68.4,58.82 205.78,96.35 299.57,99.4 106.92,3.47 192.56,-18.34 280.09,-66.22 37.36,-20.43 47.45,-21.13 63.28,-49.25 10.59,-34.46 -15.02,-10.24 20.52,-46l-673.96 -0.02c-9.76,17.15 -19.38,-25.46 -7.62,35z"/>
   <path class="fil10" d="M5779.84 3674.9l-17.69 48.6c29.19,-19.94 11.37,9.14 42.29,-40.6l270.93 -1.18 -8.68 45.58 19.3 -11.84c195.04,-157.08 253.6,-80.79 413.42,11.17l5.57 -33c73.15,0.08 212.34,-21.93 268.66,20.33l31.74 22.2 -28.98 -74.73c-4.7,-1.88 -10.38,-3.96 -13.76,-6.43l-41.48 -56.05 -876.27 0.21 -28.36 45.65c-1.19,1.8 -5.08,10.25 -5.95,8.17 -0.55,-1.34 6.38,21.92 -30.74,21.92z"/>
   <path class="fil11" d="M5795.59 4122.62c2.44,29.68 -2.35,19.49 12.68,47.73 4.77,8.98 10,17.31 16.19,24.16 16.3,17.99 6.61,6.88 26.21,20.97l6.24 -33.15 850.78 -0.2 6.34 31.37c25.6,-16.3 33.47,1.53 28.15,-40.03l-7.53 -50.38c-62.88,0 -125.87,0.35 -188.73,-0.06 -65.81,-0.43 -137.35,20.68 -169.56,17.39 -50.32,1.41 -106.16,14.61 -161,-0.02 -58.98,-15.73 -75.44,-39.9 -114.69,-53.71 -95.49,-5.79 -205.05,-9.53 -303.88,-5.86l-1.2 41.79z"/>
   <path class="fil12" d="M5948.5 3464.24c126.76,-16.55 541.75,-17.26 667.29,0.67 -26.79,-40.44 -82.9,-70.25 -133.39,-88.97 -62.93,-23.33 -119.83,-36.19 -192.57,-37.36 -98.51,-1.57 -259.36,39.84 -320.71,97.4 -21.23,19.91 -3.39,0.89 -20.62,28.26z"/>
   <path class="fil13" d="M3032.29 4177.26c19.55,-38.21 396.79,-15.87 453.4,-14.5 156.93,3.8 326.37,-2.46 485.32,-2.46l6.88 27.09c24.28,-16.23 33.18,0.56 28.17,-40.13l-8.09 -45.18c-137.99,-2.54 -231.68,-4.86 -364.95,17.7 -38.85,-6.81 -74.14,19.76 -134.18,17.61 -60.41,-2.15 -82.3,-27.08 -130.98,-26.67 -58.91,-6.29 -337.86,-46.24 -363.94,14.59 -4.89,18.96 -14.73,2.94 2.03,29.09 16.66,25.97 4.13,5.7 26.34,22.86z"/>
   <path class="fil14" d="M5753.52 4002.59c-11.27,39.41 -9.58,32.96 15.1,50.78l9.89 -48.92c89.18,-0.14 187.9,-10.14 271.8,13.87l-5.27 -34.41 -7.85 1.07c-13.39,-10.65 -30.46,25.35 -30.46,-40.44l-13.47 -92.8 -229.32 0.29c-5.54,64.24 6.16,88.59 -10.42,150.56z"/>
   <path class="fil15" d="M6503.61 4038.89c-21.53,8.25 -31.24,28.41 -56.59,49.41 -24.41,20.22 -47.74,26.5 -70.66,52.12 32.21,3.29 103.75,-17.82 169.56,-17.39 62.86,0.41 125.85,0.06 188.73,0.06l7.53 50.38c26.43,-22.34 0.56,21.71 29.62,-30.47 16.36,-29.38 10.06,-26.86 11.16,-50.96l0.48 -79.45c-47.71,0 -95.51,0.29 -143.21,-0.08 -103.56,-0.8 -72.47,-4.36 -136.62,26.38z"/>
   <path class="fil16" d="M6559.32 3951.4l-23.47 6.61 -32.24 80.88c64.15,-30.74 33.06,-27.18 136.62,-26.38 47.7,0.37 95.5,0.08 143.21,0.08l-0.48 79.45c28.55,0 15.44,-25.58 13.6,-40.69 -4.02,-52.68 12.51,-67.28 4.5,-147.23l-236.15 -0.06 -5.59 47.34z"/>
   <path class="fil17" d="M5762.15 3723.5l-16.41 52.29c84.52,-23.85 184.83,-12.77 275.16,-12.77 -20.29,71.01 -14.17,108.4 -14.17,181.52 0,65.79 17.07,29.79 30.46,40.44 -24.84,-175.32 5.67,-141.19 29.5,-257.68l8.68 -45.58 -270.93 1.18c-30.92,49.74 -13.1,20.66 -42.29,40.6z"/>
   <path class="fil18" d="M6499.41 3726.63c3.58,29.43 -9.13,2.44 5.81,29.21 20.98,37.62 13.98,18.1 30.17,32.57 25.05,-55.72 232.82,-26.54 283.73,-5.65l-13.74 -46.6 -31.74 -22.2c-56.32,-42.26 -195.51,-20.25 -268.66,-20.33l-5.57 33z"/>
   <polygon class="fil19" points="8365.9,5130.97 8365.91,5144.37 8381.53,5133.21 "/>
  </g>
 </g>
</svg>
