<?xml version="1.0" encoding="UTF-8"?>
<!DOCTYPE svg PUBLIC "-//W3C//DTD SVG 1.1//EN" "http://www.w3.org/Graphics/SVG/1.1/DTD/svg11.dtd">
<!-- Creator: CorelDRAW 2018 (64 Bit Versión de evaluación) -->
<svg xmlns="http://www.w3.org/2000/svg" xml:space="preserve" width="91.44mm" height="83.82mm" version="1.1" style="shape-rendering:geometricPrecision; text-rendering:geometricPrecision; image-rendering:optimizeQuality; fill-rule:evenodd; clip-rule:evenodd"
viewBox="0 0 9144 8382"
 xmlns:xlink="http://www.w3.org/1999/xlink">
 <defs>
  <style type="text/css">
   <![CDATA[
    .fil3 {fill:#800A04}
    .fil19 {fill:#81130C}
    .fil1 {fill:#CF9665}
    .fil0 {fill:#D79755}
    .fil4 {fill:#E19E57}
    .fil18 {fill:#E3DBDB}
    .fil17 {fill:#E49C43}
    .fil2 {fill:#F16A1E}
    .fil10 {fill:#F4842D}
    .fil6 {fill:#F59638}
    .fil14 {fill:#F77522}
    .fil13 {fill:#F8892E}
    .fil7 {fill:#F8A642}
    .fil15 {fill:#F8C253}
    .fil16 {fill:#F9A943}
    .fil11 {fill:#F9BB4E}
    .fil12 {fill:#FACB58}
    .fil5 {fill:#FDFCFC}
    .fil8 {fill:#FEFEFE}
    .fil9 {fill:white}
   ]]>
  </style>
 </defs>
 <g id="Capa_x0020_1">
  <metadata id="CorelCorpID_0Corel-Layer"/>
  <g id="_3081583785088">
   <g>
    <path class="fil0" d="M2782.59 3059.71c-19.51,-281.06 138.11,-241.09 223.37,-325.79l-61.58 -18.08c-42.82,36.98 -54.22,29.83 -94.38,58.52 -105.54,75.39 -120.1,207.09 -67.41,285.35z"/>
    <path class="fil0" d="M3418.9 2595.9c-18.23,-133.52 75.1,-124.84 182.73,-127.28l-53.34 18.15 50.99 28.64 -11.71 -22.22 34.9 -1.8c6.37,-6.34 15.37,-21.05 21.19,-27.87l-41.76 -22.63c-43.24,-14.28 -117.38,-13.89 -156.95,5.21 -55.67,26.87 -77.82,88.82 -26.05,149.8z"/>
   </g>
   <g>
    <path class="fil1" d="M2881.85 2661.14l4.19 -111.43c43.99,-31.95 132.86,-95.68 209.97,-58 35.56,26.58 7.38,-7.25 6.81,28.91 -0.57,35.33 -5.69,18.37 -1.03,66.16l87.38 -107.82 100.82 38.07c-73.74,-107.74 -280.28,-85.62 -358.38,-50.26 -53.97,24.43 -82.41,81.6 -73.82,140l24.06 54.37z"/>
    <path class="fil1" d="M3218.99 2889.77c18.27,22.93 -2.57,-10.78 -1.1,48.05 1.12,44.23 4.12,36.07 21.87,80.69l-93.73 -29.43c6.92,12.32 -1.43,20.21 24.99,40.89 29.86,23.39 7.37,7.87 51.35,13.25 0,25.52 4.83,15.92 -26.9,14.93 0,30.93 29.45,13.94 59.58,8.37l32.69 -7.69c-2.38,-2.76 -6.38,-9.96 -7.35,-7.65 -7.68,18.46 -22.22,-20.94 -29.92,-42.32 -21.02,-58.38 -8.41,-103.58 53.48,-115.97l70.82 -4.19c3.85,-0.51 8.86,-2.23 11.87,-2.74 2.93,-0.5 7.61,-2.15 11.35,-3.42 -2.96,-3.24 -7.08,-12.86 -8.58,-10.02 -1.39,2.64 -6.38,-7.26 -8.22,-9.12 -2.14,-2.18 -11.32,-11.39 -15.03,-14.44 -59.9,3.56 -100.69,5.25 -147.17,40.81z"/>
   </g>
   <g>
    <path class="fil2" d="M3515.13 4155.1l333.02 -5.53 -2.88 58.29c34.39,-34.17 41.51,-76.8 46.02,-125.3l-339.61 -3.07 -36.55 75.61z"/>
    <path class="fil2" d="M2727.82 4208.2l-5.09 -57.95 331.89 0.58 -36.18 -67.76 -334.35 -3.9c-0.12,31.05 -3.25,34.34 5.02,66.41 16.99,65.91 9.65,36.71 38.71,62.62z"/>
   </g>
   <g>
    <path class="fil3" d="M3708.09 6788.54c52.23,-36.9 75.54,-125.82 28.82,-186.19 -39.97,15.6 -49.25,36.03 -60.73,83.44 -12.97,53.56 -7.52,70.59 31.91,102.75z"/>
    <path class="fil3" d="M8352.65 5329.57l126.34 -14.15c-13.43,-46.73 -28.36,-103.43 -57.39,-139.1 -35.36,42.89 -39.52,102.15 -68.95,153.25z"/>
    <path class="fil3" d="M1315.42 5318.16l126.88 8.21c-34.23,-50.76 -38.69,-114.75 -83.64,-152.11 -12,59.73 -35.28,86.1 -43.24,143.9z"/>
    <path class="fil3" d="M523.81 5087.66c37.69,23.1 83.2,29.44 140.96,26.95 -17.19,-47.13 -36.74,-53.56 -99.03,-53.58 -24.09,-0.02 -39.97,7.14 -41.93,26.63z"/>
    <path class="fil3" d="M5715.04 6770.8c22.08,12.41 29.5,15.64 66.65,15.68l1.25 -82.44c-29.1,22.39 -46.48,37.37 -67.9,66.76z"/>
   </g>
   <g>
    <path class="fil4" d="M3607.52 2549.25l-2.4 47.74 -40.01 41.49 -81.38 -3.11c-47.34,30.1 -53.17,23.32 -107.22,30.78 -198.51,27.39 -195.5,73.02 -264.04,92.38 -3.63,1.99 -9.18,0.4 -11.07,5.63 -1.85,5.16 -8.39,4.39 -10.83,5.82 -2.86,1.67 -16.41,9.76 -20.36,12.47 26.37,23.29 -26.61,4.12 26.63,21.11 -29.67,64.79 -40.93,104.67 2.09,171.25 -23.35,-288.5 255.17,-252.21 479.29,-308.56 24.94,-6.26 76.61,-19.08 94.69,-35.82 10.81,-10.03 17.2,-15.41 20.6,-38.34 7.12,-47.81 -3.3,-39.72 -14.06,-58.36 -9.62,42.53 -22.06,46.02 -43.43,72.17l-28.5 -56.65z"/>
    <path class="fil4" d="M2998.62 2709.1l7.34 24.82 85.87 -1.41c-13.24,-32.11 24.3,-29.16 -43.36,-33.98 -7.08,-0.51 -46.08,9.94 -49.85,10.57z"/>
   </g>
   <g>
    <path class="fil5" d="M2943.79 3013.68c85.78,45 82.58,56.81 201.04,71.83 48.41,6.14 76.5,10.45 127.3,5.43 39.85,-3.95 120.84,0.24 63.71,-21.71l-80.79 -2.71c-30.13,5.57 -59.58,22.56 -59.58,-8.37 -56.6,-25.97 -63.22,-38.02 -96.54,-83.34 -43.02,-66.58 -31.76,-106.46 -2.09,-171.25 -53.24,-16.99 -0.26,2.18 -26.63,-21.11l-61.64 -21.97c-44.56,63.01 -127.37,123.2 -64.78,253.2z"/>
    <path class="fil5" d="M3599.28 2515.41l8.24 33.84 28.5 56.65c21.37,-26.15 33.81,-29.64 43.43,-72.17 -24.75,-43.3 -1.57,-21.49 -56.98,-42.34l-34.9 1.8 11.71 22.22z"/>
   </g>
   <g>
    <path class="fil6" d="M5694.75 3813.53c-28.81,45.59 -52.83,232.42 -8.5,298.62 17.43,-66.72 5.18,-92.38 10.95,-160.87l245.12 -0.26c0.11,21.49 -1.8,48.91 3.17,69.6 12.53,52.27 -0.6,12.22 14.54,38.2l29.03 34.17c-26.09,-187 5.48,-150.55 31.73,-275.09l-6.4 -42.63 -256.48 1.52c-40.16,8.89 -50.58,31.9 -52.93,28.14 -1.98,-3.13 -6.59,6.04 -10.23,8.6z"/>
    <path class="fil6" d="M6505.08 3855.46c4.04,72.39 24.5,99.56 17.3,208.69 15.77,-21.11 13.13,-11.74 22.44,-48.42 2.47,-9.75 4.99,-53.76 6.32,-66.77l224.11 3.34c37.93,8.95 7.63,-4.38 31.02,13.07l8.96 154.22c19.85,-27.12 15.86,-19.91 22.95,-68.82 4.64,-32.04 4.39,-55.25 1.9,-86.98 -2.86,-36.67 -19.25,-120.01 -28.75,-136.74 -89.47,-27.72 -196.38,-15.29 -292.44,-15.29 -17.5,24.04 -21.79,-34.89 -13.81,43.7z"/>
   </g>
   <g>
    <path class="fil7" d="M2938.76 4467.07c-1.78,-43.33 -15.54,-18.56 19.77,-32.95l663.07 0c12.31,18.93 7.97,-2.88 6.47,35.19 56.98,-20.58 60.01,-30.81 97.69,-70.55 13.55,-14.28 22.78,-22.49 34.41,-37.5 25.41,-32.9 18.98,-21.47 27.1,-51.51l-7.12 -28.17c-172.51,0 -346.81,2.72 -518.92,1.24 -89.8,-0.77 -435.5,-27.39 -484.46,16.19 11.12,54.21 104.99,145.65 161.99,168.06z"/>
    <path class="fil7" d="M6522.38 4064.15l-34.05 86.49c73.7,-33.32 194.73,-24.74 297.97,-24.74l0.17 81.77c30.14,-33.38 29.22,-36.72 28.76,-88.08l-8.96 -154.22c-23.39,-17.45 6.91,-4.12 -31.02,-13.07l-224.11 -3.34c-1.33,13.01 -3.85,57.02 -6.32,66.77 -9.31,36.68 -6.67,27.31 -22.44,48.42z"/>
   </g>
   <g>
    <path class="fil8" d="M2998.62 2709.1c3.77,-0.63 42.77,-11.08 49.85,-10.57 67.66,4.82 30.12,1.87 43.36,33.98 17.05,14.49 -1.12,-10.38 20.64,26.02 68.54,-19.36 65.53,-64.99 264.04,-92.38 54.05,-7.46 59.88,-0.68 107.22,-30.78 -55.98,-2.11 -46.65,-10.51 -64.83,-39.47 -51.77,-60.98 -29.62,-122.93 26.05,-149.8 39.57,-19.1 113.71,-19.49 156.95,-5.21l41.76 22.63c98.66,55.94 182.99,270.78 -96.8,355.78 41.42,99.06 85.62,183.6 22.15,285.82 -39.72,63.98 -139.13,122.31 -228.85,139.57 -234.13,45.05 -481.87,-16.67 -557.57,-184.98 -52.69,-78.26 -38.13,-209.96 67.41,-285.35 40.16,-28.69 51.56,-21.54 94.38,-58.52l-62.53 -54.7 -24.06 -54.37c-8.59,-58.4 19.85,-115.57 73.82,-140 78.1,-35.36 284.64,-57.48 358.38,50.26l10.64 112.45c-32.14,16.94 -64.64,42.08 -118.95,29.69 -56.87,-12.98 -50.21,-33.83 -79.89,-72.39 -4.66,-47.79 0.46,-30.83 1.03,-66.16 0.57,-36.16 28.75,-2.33 -6.81,-28.91 -42.16,22.18 -70.98,20.91 -94.87,75.34 -21.48,48.93 -14.74,95.69 -2.52,142.05zm28.72 -303.4c-77.24,0.83 -82.48,5.35 -135.36,35.48 -160.75,91.59 -137.6,49.85 -307.61,211.25 -219.48,208.36 -367.16,684.02 -273.13,717.65l1917.86 4.22c85.43,-3.28 77.19,-10.76 64.7,-94.64 -56.78,-381.36 -230.35,-659.89 -578.83,-821.52l-190.68 -69.53c-10.41,-2.68 -25.69,-6.18 -34.17,-9.25 -86.01,-31.14 -27.65,-59.58 -95.24,-120.91 -38.1,-34.56 -72.31,-39.34 -134.07,-39.29 -4.99,59.48 -41.83,119.85 -74.98,155.28 -65.41,69.92 -62.99,41.63 -158.49,31.26z"/>
    <path class="fil8" d="M5715.04 6770.8c21.42,-29.39 38.8,-44.37 67.9,-66.76l-1.25 82.44c-37.15,-0.04 -44.57,-3.27 -66.65,-15.68zm-248.39 17.69c-40.69,-30.21 -44.97,-49.82 -31.98,-102.78 11.6,-47.21 20.84,-67.58 60.8,-83.48 47.01,60.36 24.19,148.94 -28.82,186.26zm-1758.56 0.05c-39.43,-32.16 -44.88,-49.19 -31.91,-102.75 11.48,-47.41 20.76,-67.84 60.73,-83.44 46.72,60.37 23.41,149.29 -28.82,186.19zm1371.58 -276.08c6.01,-74.38 30.39,-148.76 67.71,-197.42 3.78,83.73 -33.42,151.95 -67.71,197.42zm-1803.9 -156.46c59.64,-32.01 149.94,-6.43 189.01,27.36 117.75,101.88 12.77,433.64 -200.21,416.28 -6.91,-225.23 88.21,-378.33 71.32,-433.15l-60.12 -10.49zm0 0c-115.04,91.88 -124.55,298.36 -115.49,492.28 196.7,91.73 332.78,-9.62 405.99,-143.9 18.23,33.66 17.84,201.63 179.87,152.67 72.98,-22.05 133.9,-139.97 94.95,-223.78 61.12,14.37 59.82,32.64 50.85,108.79 -9.23,78.45 -21.5,46 14.91,118.63 109.64,2.72 78.05,-40.27 130.41,-113.03 5.9,97.81 -18.86,117.4 90.51,113.03 18.95,-35.5 32.47,-79 50.56,-111.51l32.47 111.51c68.08,3.17 101.32,-12.68 153.62,-6.73 104.33,11.94 59.06,9.13 147.43,-12.75 87.92,-21.76 29.37,17.16 133.29,22.42 72.37,3.66 90.06,-19.95 129.61,-43.39 64.36,75.18 116.45,50 216.22,0.07 85.84,93.46 110.83,13.68 177.76,25.36 40.52,7.07 34.88,26.09 107.53,13.73 33.42,-5.67 55.72,-24.1 87.32,-21.46 82.36,6.92 225.22,121.56 251.66,-207.94l53.13 57.65c-33.14,49.37 -45.37,28.77 -58.56,86.48l47.35 39.94c38.3,36.2 18.67,36.46 69.85,47.04 88.92,18.41 290.16,-35.7 286.95,-117.28 -3.11,-78.95 -73.85,-21.78 -114.88,-1.02 -16.4,-25.18 -31.67,-68.32 -24.45,-108.45 10.08,-56.06 27.09,-18.1 26.25,-105.33 -120.53,-7.12 -125.16,39.22 -177.41,112.75 -60.27,-52.93 -130.18,-153.95 -281.05,-108.74 -149.8,44.92 -58.35,194.33 -148.75,253.37 -27.14,-40.96 -17.04,-73.65 -2.57,-129.51 14.92,-57.46 19.55,-59.52 19.14,-129.63 -214.5,-3.01 -43.82,225.45 -230.26,244.36 -5.2,-89.89 80.78,-228.59 138.29,-340.11 36.52,58.45 44.2,77.35 142.67,42.69l-6.59 -91.96c-58.53,-21.55 -69.5,-14.64 -115.86,14.63 -0.28,-81.57 40.49,-119.43 -14.01,-187.79 -126.24,-66.07 -194.05,136.99 -222.87,230.03 -88.34,285.1 21.96,316.81 -109.4,347.29 -5.11,-107.14 39.38,-157.96 41.16,-258.78l-88.59 1.4c-57.75,100.53 -35.71,257.89 -198.09,257.86 -32.52,-64.04 -33.3,-143.29 27.1,-185.66 1.66,74.19 -13.07,41.39 28.9,72.07 74.89,-15.58 76.08,-65.45 43.29,-129.85 -91.41,-46.36 -166.84,-11.1 -203.31,56.04 -50.09,92.18 7.08,160.51 -83.37,187.4 -27.6,-64.04 28.72,-162.54 29.19,-259.35l-88.58 1.49c-44.52,90.33 -21.55,217.1 -113.38,243.23 -9.01,-191.43 51.12,-243.88 -45.51,-243.18 -49.61,0.35 -41.73,20.99 -78.72,70.12l-18.83 -71.84c-86.1,-0.84 -99.04,23.29 -121.66,84.82l-20.72 -74.03c-0.67,-5.99 -2.51,-7.83 -4.72,-11.24 -96.21,1.45 -44.47,-3.23 -86.49,56.78 -172.27,-118.15 -236.88,-32.4 -300.01,-14.04 39.36,-171.09 -51.94,-290.5 -206.68,-312.73 -181.23,-26.07 -339.14,6.7 -329.4,214.58 127.79,-8.43 39.16,-107.58 201.98,-115.5z"/>
    <path class="fil8" d="M3549.53 4927.25l-100.97 -0.44c25.23,44.45 209.68,532.18 201.8,578.86 -22.94,150.84 -25.87,140.61 43.38,144.2 0,-169.09 -21.24,-155.45 218.68,-127.27 0.92,-79 55.76,-205.65 87.3,-258.61 32.69,61.25 82.44,185.14 83.07,258.04 139.45,-22.38 117.44,-19.18 261.45,1.09 -0.42,-81.14 162.45,-527.36 199.94,-596.47 -102.47,-0.05 -174.54,3.68 -261.48,-12.03 -1.48,77.9 -49.36,210.82 -82.51,257.5 -36.36,-66.52 -86.43,-161.21 -88.44,-257.5 -309.8,55.87 -189.98,-76.8 -244.36,101.35 -12.75,41.76 -51.19,124.55 -72.82,155.09 -56.84,-80.4 -73.27,-225.8 -83.38,-256.44 -48.7,16.1 -97.88,12.54 -161.66,12.63z"/>
    <path class="fil8" d="M1805.31 5649.82c0,42.31 4.82,25.69 28.91,43.3 14.76,-4.84 60.86,22.86 29.55,-102.65 -23.68,-94.96 5.2,-86.77 111.76,-82.58l2.84 159.37c65.77,33.47 15.05,33.11 86.54,40.28l0 -461.26c40.5,31.31 81.87,88.12 114.3,130.79 143.06,188.14 72.95,167.01 72.95,388.13 142.38,1.55 33.1,-68.73 61.16,-241.69l196.69 -2.09c2.35,104.7 -53.97,136.64 44.99,142.87 0,-71.88 -14.42,-89.51 -14.42,-144.2 0,-167.01 -27.08,-462.77 28.83,-607.14 -146.66,14.83 -18.59,58.62 -277.25,-0.1 59.67,191.66 25.16,80.46 15.96,288.35 -34.91,-24.99 -74.1,-80.29 -109.38,-118.07 -51.33,-54.96 -76.05,-67.86 -76.17,-170.4 -102.54,11.9 22.64,28.29 -201.86,28.29 -68.94,0 -57.62,-14.08 -115.4,-28.36 12.09,63.64 25.86,77.99 26.2,159.9l-0.1 404.7c-1.24,68 -26.1,131.72 -26.1,172.56z"/>
    <path class="fil8" d="M6648.55 5001.17l0 634.23c0,66.14 -73.73,258.99 32.16,219.47 39.18,-18.3 39.88,-22.1 18.85,-154.55 -10.39,-65.43 -12.24,-114.73 6.79,-165.76 61.41,-26.74 341.71,-15.4 430.26,-12.8 19.73,80.95 2.04,88.92 2.04,185.71 0,50.97 0.27,24.94 28.89,43.31 34.6,-19.8 28.89,21.28 28.89,-86.55 0,-74.1 -55.91,-117.07 28.77,-170.07 105.12,71.49 -42.98,170.3 74.93,198.96 33.8,-69.75 -13.35,-114.12 -2.79,-216.27l17.14 -129.39c-83.11,30.9 -311.79,14.01 -420.75,14.01l-9.35 -56.03 355.3 12.91c-33.37,-143.71 0.92,-128.37 -11.05,-176.47 -57.31,-12.42 -234.45,3.37 -334.9,3.37l-4.96 -47.36c5.74,-3.98 136.63,-6.74 177.18,-7.59 99.19,-2.08 150.16,5.94 231.39,13.74 -26.01,-72.29 -13.25,-109.34 0,-175 -151.66,26.57 -510.65,19.52 -662.92,-1.69 8.43,23.99 14.13,39.62 14.13,73.82z"/>
    <path class="fil8" d="M664.77 5114.61c-57.76,2.49 -103.27,-3.85 -140.96,-26.95 1.96,-19.49 17.84,-26.65 41.93,-26.63 62.29,0.02 81.84,6.45 99.03,53.58zm28.35 218.09c-59.52,72.61 -131.14,7.73 -170.62,-30.08 -104.38,22.04 -210.89,16.99 -304.85,15.49 81.44,170.11 127.89,202.15 304.68,202.15l-2 129.73c57.68,-20.44 19.41,28.28 33.02,-57.97 10.28,-65.13 -31.64,-43.56 26.62,-71.76 -0.07,11.38 -3.44,84.45 -2.84,87.51 12.43,62.67 -21.83,34.83 46.44,42.22 0,-169.24 -48.02,-110.35 122.89,-136.4 269.83,-41.15 259.26,-251.97 177.43,-322.85 -78.31,-67.84 -153.9,-39.41 -225.42,-77.25 58.75,-39.01 181.69,-20.14 271.05,-25.66 -86.95,-139.33 -150.72,-187.75 -403.78,-187.75 -159.61,0 -382.02,83.3 -318.89,260.24 62.22,174.42 357.32,91.02 446.27,172.38z"/>
    <path class="fil8" d="M2917.58 5089.96c128.49,1.87 260.55,1.55 251.89,138.46 -9.08,143.49 -104.55,133.05 -254.39,133.03l2.5 -271.49zm-175.27 617.58c48.42,-30.12 28.64,-14.73 21.37,-75.53 -5.94,-49.54 -6.88,-75.76 -6.88,-126.27 140.44,0 144.01,-12.19 144.01,129.73 78.8,-17.31 30.17,-7.78 32.78,-59.76 5.85,-116.57 100.56,-18.93 296.74,-72.17 147.23,-39.94 186,-125.76 179.04,-315.76 -13.03,-354.63 -452.15,-202.53 -741.64,-260.39 10.57,181.92 -4.89,362.15 5.53,531.84 3.23,52.59 -3.68,34.81 -3.18,90.69 0.81,92.33 5.97,37.15 29.06,84.26 33.83,69.03 -21.4,48.11 43.17,73.36z"/>
    <path class="fil8" d="M4947.54 5188.55c0,96 2.42,181.86 87.42,258.51 75.06,67.7 130.23,62.34 184.3,89.79 -2.13,120.21 -41.44,173.8 16.75,201.89 76.41,-36.87 -10.91,-157.82 43.07,-204.06 -1.05,174.32 -22.44,128.88 30.92,158.56l12.68 -158.56 71.66 0c0.05,82.88 -11.66,211.45 11.48,259.46 94.16,-22.62 24.87,-95.8 32.17,-230.8 0,-79.9 243.41,-15.53 302.71,-274.07 -209.26,13.48 -150.74,-11.83 -288.64,-14.4 -6.8,158.38 -244.7,130.08 -244.7,-43.08 0,-142.74 99.06,-176.99 194.61,-137.81 43.39,17.79 47.24,28.75 50.09,82.53 96.54,-9.57 159.79,-16.6 274.22,-16.6 -40.76,-217.18 -175.79,-234.29 -403.78,-234.07 -190.02,0.17 -374.96,83.79 -374.96,262.71z"/>
    <path class="fil8" d="M5798.1 5736.36c153.45,-3.42 -7.57,-150.19 57.79,-216.22 82.14,-35.43 151.91,-4.78 157.22,86.93 6.3,108.84 -57.01,200.3 15.7,244.62 66.62,-39.57 20.34,-132.46 14.88,-244.77 -4.72,-96.84 -0.41,-204.93 -0.41,-302.99l244.92 0 -10.76 230.82c98.51,-20.62 153.93,-20.92 255.94,-0.19 -14.37,-172.97 -33.27,-432.07 0,-607.34 -115.6,23.06 -150.94,9.07 -259.6,1.82 15.53,81.51 9.52,121.3 12.82,214.6l-228.9 1.82c4.65,-94.18 -2.23,-134.09 14.4,-216.42 -106.69,5.75 -145.15,23.19 -262.04,-2.01 10.35,87.1 23.58,513.54 11.18,617.56 -8.34,69.94 -23.14,99 -23.14,191.77z"/>
    <path class="fil8" d="M1315.42 5318.16c7.96,-57.8 31.24,-84.17 43.24,-143.9 44.95,37.36 49.41,101.35 83.64,152.11l-126.88 -8.21zm-302.83 331.83c65.62,-17.45 43.42,-44.09 43.42,-129.73 66,0 140.22,-3.11 189.76,14.42 11.2,-32.24 1.17,-32.91 14.42,-84.12 37.88,0.19 75.37,0.05 113.23,-0.35 109.4,-1.16 117.73,-1.57 125.63,56.96 7.57,56.12 -10.97,130.09 -10.97,200.49 66.95,-7.1 47.25,1.87 45.14,-86.27 -3.75,-156.12 57.93,-86.52 73.41,-85.11 49.97,4.58 57.66,-38.76 157.28,-1.6 -26.12,-131.05 -231.03,-487.71 -232.23,-605.76 -127.92,6.26 -172.93,12.19 -306.51,-1.93 -7.44,172.42 -298.14,601.21 -212.58,723z"/>
    <path class="fil8" d="M8352.65 5329.57c29.43,-51.1 33.59,-110.36 68.95,-153.25 29.03,35.67 43.96,92.37 57.39,139.1l-126.34 14.15zm-277 320.3c47.81,-28.67 30.87,-53.03 30.87,-127.75 90.52,-4.67 126.38,-1.98 199.82,12.44l0 -86.48c198.31,17.12 263.05,-54.06 241.38,157.89 -8.31,81.17 -42.37,96.12 46.92,101.57 0,-90.95 -5.23,-102.05 0,-187.4 84,3.43 35.65,28.5 99.26,12.36 23.32,-5.92 40.81,-27.81 119.24,2.06l-247.41 -607.33c-88.88,20.71 -185.18,20.82 -273.86,-0.01l-32.45 84.9c-47.53,131.47 -190.31,430.36 -209.24,542.38 -11.66,68.99 -12.43,73.26 25.47,95.37z"/>
    <path class="fil8" d="M3359.23 1905.47c-125.24,-308.61 -263.5,-369.37 11.34,-730.59 199.21,-261.81 103.92,-632.42 -109.29,-714.2 31.94,144.73 134.21,213.07 104.93,392.75 -49.63,304.34 -394.09,390.9 -254.34,766.35 19.91,53.49 62.52,126.94 94.05,164.85 39.09,47.02 94.86,109.28 153.31,120.84z"/>
    <path class="fil8" d="M2615.87 2273.55c139.88,-38.93 226.12,-196.94 226.12,-342.64 0,-216.76 -281.91,-373.22 -312.08,-567.34 -18.85,-121.42 38.13,-142.87 53.92,-247.14 -114.96,18.71 -170.08,124.83 -169.79,252.2 0.35,156.68 48.18,216.52 118.54,310.27 59.2,78.86 131.91,126.98 161.4,257.03 45.66,201.24 -61.09,215.55 -78.11,337.62z"/>
    <path class="fil8" d="M3664.66 1613.78c0,234.95 101.47,231.61 203.26,359.37 111.48,139.91 5.73,278.76 -42.16,387.71 162.68,-27.23 302.84,-257.13 140.78,-485.96 -137.08,-193.58 -277.69,-231.76 -135.07,-499.81 -84.69,8.35 -166.81,120.92 -166.81,238.69z"/>
    <path class="fil8" d="M3366.16 2848.96c3.71,3.05 12.89,12.26 15.03,14.44 1.84,1.86 6.83,11.76 8.22,9.12 1.5,-2.84 5.62,6.78 8.58,10.02 68.9,110.84 48.82,88.08 -0.35,167.81l39 -6.13c68.25,-23.92 102.59,-77.05 110.43,-151.54l-11.53 -55.36c-69.36,-8.84 -101.81,7.16 -169.38,11.64z"/>
    <path class="fil8" d="M3146.03 2989.08l93.73 29.43c-17.75,-44.62 -20.75,-36.46 -21.87,-80.69 -1.47,-58.83 19.37,-25.12 1.1,-48.05 -43.49,13.06 -108.09,43.94 -72.96,99.31z"/>
    <path class="fil8" d="M7873.91 5721.96c0,-108.38 2.93,-67.25 -32.37,-89.57 -4.92,12.96 -18.98,38.15 -13.45,60.64 12.23,49.6 -16.49,22.17 45.82,28.93z"/>
    <path class="fil8" d="M2898.23 5793.92c56.21,-11.93 62.04,-36.09 36.63,-77.56 -13.79,-22.51 -5.87,-8.65 -22.54,-23.48l-14.09 101.04z"/>
   </g>
   <g>
    <path class="fil9" d="M4904.48 1671.45c0,91.44 193.1,97.98 257.18,172.97 -77.36,96.16 -415.73,21.03 -415.73,172.96 0,139.36 191.53,68.83 357.2,40.96 81.7,101.4 100.28,351.38 125.03,499.53 27.94,167.15 77.92,367.82 78.98,540.59 -88.94,58.4 -120.03,19.62 -206.12,124.17 -56.87,69.05 -74.59,134.46 -111.63,219.74 -27.62,63.53 -67.25,170.67 -110.31,221.37 -65.97,77.72 -161.62,54.55 -291.72,54.55 -17.06,-100.12 -92.89,-201.81 -201.8,-201.81l-2133.33 0c-175.32,0 -287.07,271.31 -123.77,397.55 60.88,47.05 80.51,51.58 181.42,51.58l2536.94 -0.01c249.35,-0.06 394.99,-236.18 473.46,-259.5 0.99,137.75 7.73,290.16 71.32,375.5 50,34.53 8.39,3.19 26.41,1.65 11.22,-0.95 32.28,-5.12 43.75,-7.84 28.65,-6.8 58.43,-15 76.95,-22.94 0,-371.67 123.88,-632.41 485.74,-756.76 179,-61.52 354.7,-33.81 503.02,38.86 164.05,80.35 229.16,153.68 319.58,298.97 169.8,-16.79 184.94,-77.33 82.02,-282.72 -326.94,-652.49 -810.86,-397.21 -1047.8,-536.98 -95.47,-56.32 -254.45,-231.03 -283.14,-347.84l143.86 16.14c-2.81,-105.02 -83.05,-524.42 -113.74,-594.47 -102.73,18.88 -148.84,73.07 -202.28,141.56 -7.45,-53.97 -23.12,-160.68 -40.31,-204.83 -33.32,-85.62 -195.09,-133.24 -327.26,-191.58 -58.32,-25.76 -153.92,-57.07 -153.92,38.63z"/>
    <path class="fil9" d="M7412.58 5001.17c0,189.01 14.71,537.87 -16.56,706.35 -26.51,142.96 60.71,121.73 69.66,59.03 1.42,-9.95 -8.14,-59.61 -12.72,-84.4 -15.91,-86.06 -2.24,-83.44 2.86,-162.06l303.97 -1.36c60.16,2.25 55.31,0.24 85.23,32.84 31.22,-14.03 34.61,-21.16 37.89,-22.44 26.82,-10.38 12.12,-8.19 48.49,-10.54 41.1,-2.65 76.41,6.17 103.32,15.91 -2.31,-61.14 -9.96,-135.69 12.11,-187.38l-400.92 13.01c34.93,-76.29 6.37,-323.22 15.12,-432.98 -149.55,31.75 -170.29,7.08 -262.85,1.94 8.65,22.25 14.4,38 14.4,72.08z"/>
    <path class="fil9" d="M4617.42 5015.18c-2.82,109.07 3.53,526.19 -10.33,614.37 -13.84,88.19 -28.36,90.53 52.35,92.34 0,-150.79 -26.74,-137.53 30.43,-214.62l97 -0.61c54.93,100.53 20.26,147.45 27.33,216.8 8.63,84.73 -8.45,39.82 32.62,57.05 15.08,-21.49 7.03,2.81 13.74,-33.03 4.22,-22.59 3.61,-29.13 1.34,-52.08 -4.39,-44.66 -14.18,-43.14 -12.89,-102.68 1.47,-68.59 12.52,-129.71 12.26,-216.76 -0.34,-116.09 -20.72,-360.93 14.39,-446.87 -203.72,29.5 -147.18,6.84 -273.88,0l15.64 86.09z"/>
    <path class="fil9" d="M4532.38 6473.83c50.25,-114.47 -46.22,-103.36 -91.06,-103.36 -19.39,26.94 -49.53,54.94 -30.44,89.09 25.19,45.09 82.81,29.29 121.5,14.27z"/>
    <path class="fil9" d="M4857.95 6410.5c-27.61,0 -6.45,45.56 0.46,64.13 86.66,31.58 104.59,17.95 133.53,-46.44 -41.17,-91.36 -114.22,-65.94 -133.99,-17.69z"/>
    <path class="fil9" d="M8664.38 5678.65c28.12,-14.3 43.02,-13.98 23.46,-64.66 -23.19,-60.12 -1.94,-10.59 -21.2,-36.25 -20.94,43.5 -22.9,53.78 -2.26,100.91z"/>
    <path class="fil9" d="M1618 5667.22c47.48,-70.69 0.22,-77.29 0,-77.65 -3.08,4.24 -15.9,-12 -22.95,38.94 -6.18,44.64 -5.36,18.81 22.95,38.71z"/>
   </g>
   <path class="fil10" d="M5694.75 3813.53c3.64,-2.56 8.25,-11.73 10.23,-8.6 2.35,3.76 12.77,-19.25 52.93,-28.14l256.48 -1.52 6.4 42.63c61.38,-36.21 103.26,-115.77 252.96,-104.34 135.94,10.37 148.93,71.4 231.33,141.9 -7.98,-78.59 -3.69,-19.66 13.81,-43.7 96.06,0 202.97,-12.43 292.44,15.29 -20.57,-100.64 -70.98,-197.19 -136.51,-229.25 -133.76,-21.31 -709.94,-19.56 -849.05,-1.83l-42.19 35.6c-15.34,18.28 -19.44,26.86 -34.17,51.68 -22.3,37.63 -43.87,77.21 -54.66,130.28z"/>
   <path class="fil11" d="M6488.33 4150.64c-48.06,20.68 -71.1,93.89 -188.55,113.42 -110.07,18.28 -183.38,-41.27 -242.15,-62.31 -93.33,-20.14 -215.63,-14 -317.12,-12.4 -8.6,20.86 -18.86,-29.06 -9.47,51.28 3.31,39.6 20.84,65 41.43,94.07 27.54,38.92 42.22,53.62 77.88,73.46 -21.75,-80.32 -6.02,-20.06 5.49,-44.96l792.78 -0.24 9.26 37.67 46.16 -36.11c11.71,-11.59 28.14,-32.51 38.49,-47.77 24.6,-36.26 41.81,-68.37 43.94,-109.08l-0.17 -81.77c-103.24,0 -224.27,-8.58 -297.97,24.74z"/>
   <path class="fil12" d="M5850.35 4408.16c69.04,141.1 446.52,264.06 741.65,60.85 28.43,-19.58 57,-39.86 65.88,-68.38l-9.26 -37.67 -792.78 0.24c-11.51,24.9 -27.24,-35.36 -5.49,44.96z"/>
   <path class="fil13" d="M2727.82 4208.2c-2.91,40.93 11.16,62.77 48.95,90.81 48.96,-43.58 394.66,-16.96 484.46,-16.19 172.11,1.48 346.41,-1.24 518.92,-1.24l7.12 28.17c23.99,-14.82 15.44,3.75 41.68,-38.9 18.15,-29.5 14.79,-36.28 16.32,-62.99l2.88 -58.29 -333.02 5.53c-55.86,27.82 -102.27,98.57 -225.14,100.4 -133.21,1.97 -164.75,-60.94 -235.37,-104.67l-331.89 -0.58 5.09 57.95z"/>
   <path class="fil14" d="M5825.77 3595.97c139.11,-17.73 715.29,-19.48 849.05,1.83 -149.82,-280.75 -725.21,-229.32 -849.05,-1.83z"/>
   <path class="fil15" d="M2938.76 4467.07c77.98,112.85 392.43,162.57 620.58,53.25l68.73 -51.01c1.5,-38.07 5.84,-16.26 -6.47,-35.19l-663.07 0c-35.31,14.39 -21.55,-10.38 -19.77,32.95z"/>
   <path class="fil16" d="M5686.25 4112.15c-3.91,33.45 -5.11,37.16 5.89,70.6 5.72,17.33 8.16,20.17 15.15,30.88 15,22.97 5.3,10.78 23.75,27 -9.39,-80.34 0.87,-30.42 9.47,-51.28 101.49,-1.6 223.79,-7.74 317.12,12.4l-68.57 -108.76 -29.03 -34.17c-15.14,-25.98 -2.01,14.07 -14.54,-38.2 -4.97,-20.69 -3.06,-48.11 -3.17,-69.6l-245.12 0.26c-5.77,68.49 6.48,94.15 -10.95,160.87z"/>
   <path class="fil17" d="M3397.64 3050.35c-30.38,-10.25 -5.67,-4.73 -36.9,3.37 -3.23,0.84 -9.97,10.78 -12.41,6.85 -2.62,-4.21 -8.51,5.51 -12.49,8.66 57.13,21.95 -23.86,17.76 -63.71,21.71 -50.8,5.02 -78.89,0.71 -127.3,-5.43 -118.46,-15.02 -115.26,-26.83 -201.04,-71.83 96,143.25 408.48,143.88 548.52,42.83 26.37,-19.01 46.46,-32.63 61.8,-69.9 17.25,-41.97 14.99,-70.09 -7.04,-93.93 -7.84,74.49 -42.18,127.62 -110.43,151.54l-39 6.13z"/>
   <path class="fil18" d="M3027.34 2405.7c95.5,10.37 93.08,38.66 158.49,-31.26 33.15,-35.43 69.99,-95.8 74.98,-155.28 -210.35,94.74 -21.01,114.39 -190.78,168.94l-42.69 17.6z"/>
   <path class="fil19" d="M5079.67 6512.46c34.29,-45.47 71.49,-113.69 67.71,-197.42 -37.32,48.66 -61.7,123.04 -67.71,197.42z"/>
  </g>
 </g>
</svg>
